# xmcd
#
# Track frame offsets:
#	150
#	14815
#	27578
#	40276
#	53588
#	65592
#	78731
#	91340
#	101882
#	114822
#	127660
#	141659
#	153575
#	165393
#	178982
#	191511
#	205258
#
# Disc length: 2888 seconds
#
# Revision: 1
# Processed by: cddbd v1.5.2PL0 Copyright (c) Steve Scherf et al.
# Submitted via: audiograbber 1.83.01
#
DISCID=f10b4611
DTITLE=Ray Charles - Ray Charles CD 5
DYEAR=2006
DGENRE=Blues
TTITLE0=Funny
TTITLE1=Feelin' Sad
TTITLE2=I Wonder Who
TTITLE3=Don't You Know
TTITLE4=Nobody Cares
TTITLE5=Ray's Blues
TTITLE6=Mr. Charles Blues
TTITLE7=Black Jack
TTITLE8=I've Got A Woman
TTITLE9=Greenbacks
TTITLE10=Come Back Baby
TTITLE11=The Sun's Gonna Shine Again
TTITLE12=Roll with my Baby
TTITLE13=The Midnight Hour
TTITLE14=Jumpin' in the Morning
TTITLE15=A Fool for You
TTITLE16=This Little Girl of Mine
EXTD=
EXTT0=
EXTT1=
EXTT2=
EXTT3=
EXTT4=
EXTT5=
EXTT6=
EXTT7=
EXTT8=
EXTT9=
EXTT10=
EXTT11=
EXTT12=
EXTT13=
EXTT14=
EXTT15=
EXTT16=
PLAYORDER=
